<svg width="471" height="512" viewBox="0 0 471 512" fill="none" xmlns="http://www.w3.org/2000/svg">
<path fill-rule="evenodd" clip-rule="evenodd" d="M456.15 1.08099C450.378 0.215146 444.572 -0.130444 438.734 0.0438032C413.786 1.34278 388.769 2.51812 363.676 3.57024C335.261 3.63934 306.846 3.70854 278.431 3.77774C250.034 3.8469 221.638 3.91606 193.242 3.98511C177.984 4.58875 162.778 5.83338 147.627 7.71898C90.6777 14.9224 51.6287 45.1394 30.4791 98.3691C30.2718 103.207 30.2025 108.048 30.2718 112.89C31.5776 113.01 32.8217 112.802 34.0039 112.267C39.4342 103.375 46.2076 95.6309 54.3234 89.0344C69.1872 78.0697 85.3598 69.3573 102.841 62.8973C144.745 47.3685 187.872 37.2041 232.222 32.404C230.415 34.5572 228.687 36.7697 227.038 39.042C213.125 60.5093 200.685 82.9125 189.717 106.252C170.446 147.162 152.2 188.511 134.979 230.299C105.573 235.458 77.3059 244.239 50.1765 256.644C43.2402 259.324 36.1906 261.676 29.0277 263.697C20.2079 266.124 11.223 267.505 2.07341 267.845C1.29215 267.937 0.600874 268.21 0 268.675C0.138864 268.815 0.277623 268.953 0.416382 269.092C0.554008 269.229 0.691635 269.366 0.829364 269.505C17.6543 270.525 34.4489 270.177 51.2132 268.468C54.4415 269.916 57.6897 271.368 60.9583 272.824C77.5223 278.213 94.3858 282.428 111.549 285.477C99.5702 315.415 88.4426 345.701 78.1676 376.335C71.198 397.311 65.3925 418.611 60.7509 440.226C57.5438 454.717 56.1616 469.379 56.6041 484.202C56.9338 489.173 57.9016 494.01 59.5069 498.723C62.1364 505.921 67.1818 510.277 74.6428 511.792C156.75 512.07 238.857 512.07 320.964 511.792C340.342 511.696 359.14 508.377 377.361 501.835C392.356 496.997 405.14 488.77 415.719 477.15C430.092 459.596 440.459 439.819 446.82 417.822C447.96 413.284 448.234 408.72 447.649 404.132C447.305 403.231 446.683 402.609 445.783 402.265C442.939 401.572 440.45 402.194 438.319 404.132C435.454 410.01 432.066 415.541 428.159 420.727C415.524 435.861 400.251 447.548 382.337 455.783C359.762 465.927 336.266 473.117 311.841 477.357C268.183 484.592 224.227 487.774 179.972 486.899C174.39 486.634 168.861 485.945 163.385 484.825C146.724 481.431 137.67 471.267 136.223 454.331C136.029 443.935 137.273 433.7 139.955 423.631C142.738 412.217 145.779 400.879 149.078 389.611C158.904 357.284 169.755 325.339 181.631 293.775C218.229 296.053 254.859 296.401 291.522 294.812C318.725 293.924 345.679 290.883 372.385 285.685C379.894 284.196 386.944 281.569 393.533 277.802C395.275 276.682 396.245 275.093 396.436 273.031C395.951 269.845 394.773 266.941 392.911 264.319C380.927 247.369 364.821 236.237 344.601 230.921C314.259 223.212 283.435 219.824 252.127 220.757C238.707 220.759 225.299 220.967 211.903 221.379C218.66 206.959 225.364 192.508 232.015 178.025C254.406 131.4 279.84 86.7318 308.316 44.0205C310.029 41.8905 311.895 39.885 313.914 38.0048C320.893 32.8177 328.772 29.9135 337.551 29.2925C345.617 28.4884 353.703 28.0043 361.81 27.8404C376.37 27.5579 389.984 30.9462 402.656 38.0048C418.394 47.4378 425.791 61.3361 424.842 79.6997L419.866 117.868C419.157 124.479 422.13 127.176 428.781 125.958C431.871 124.389 434.288 122.107 436.038 119.113C450.764 95.5342 461.545 70.2269 468.383 43.1908C470.15 34.4245 470.706 25.5739 470.042 16.6388C469.462 13.1999 468.491 9.88089 467.139 6.6818C464.15 3.55945 460.484 1.69251 456.15 1.08099ZM318.537 255.311C316.559 254.734 314.486 254.456 312.317 254.481C288.721 252.432 265.085 251.119 241.406 250.54C202.182 249.466 163.063 250.987 124.051 255.103C111.573 256.522 99.2706 258.804 87.1445 261.949C86.272 261.824 85.4426 261.961 84.6564 262.364C86.3769 262.907 88.0356 262.907 89.6326 262.364C144.358 258.613 199.096 258.543 253.847 262.156C280.954 264.48 308.046 266.969 335.124 269.624C343.787 270.475 352.429 271.512 361.042 272.736C361.288 272.698 361.534 272.66 361.78 272.622C361.973 272.593 362.165 272.563 362.358 272.533L362.395 272.527L362.906 272.448C363.183 272.406 363.46 272.363 363.737 272.321C362.846 271.221 361.88 270.184 360.835 269.209C355.941 265.699 350.824 262.517 345.491 259.667C336.58 257.725 327.594 256.273 318.537 255.311Z" fill="#007146"/>
</svg>
